<svg xmlns="http://www.w3.org/2000/svg" version="1.1" xmlns:xlink="http://www.w3.org/1999/xlink" width="200" height="200"><svg t="1756226689794" class="icon" viewBox="0 0 1024 1024" version="1.1" xmlns="http://www.w3.org/2000/svg" p-id="4568" xmlns:xlink="http://www.w3.org/1999/xlink" width="200" height="200"><path d="M452.672 850.773333C337.408 871.04 164.416 910.528 0 983.04h893.781333s-13.077333-163.2-284.650666-152.64c18.026667-138.88 53.248-254.250667 94.933333-348.501333a465.493333 465.493333 0 0 1 1.216-77.248c-12.416 6.954667-25.365333 13.909333-38.421333 20.842666-51.498667 107.242667-95.850667 242.901333-116.138667 410.24-11.541333 1.472-25.557333 3.392-41.728 5.802667-19.861333-150.037333-56.533333-265.834667-92.501333-349.568a433.024 433.024 0 0 1-64.298667-25.28c-0.832 4.757333-2.048 9.557333-3.114667 14.336 38.506667 80.746667 81.792 202.602667 103.637334 369.728h-0.042667z m92.437333-356.053333c19.84 12.608 37.205333 29.077333 50.112 52.842667a187.008 187.008 0 0 0-18.517333-72.789334c-11.562667 6.762667-22.336 13.504-31.573333 19.946667z m156.48 219.306667c166.186667-73.6 181.376-290.709333 142.336-408.810667 64.362667 150.016 172.8 228.373333 176.789334 325.376 20.074667-163.413333-52.949333-306.730667-162.901334-365.866667 57.642667 17.194667 117.653333 48.32 154.517334 93.952 0.490667-68.522667-78.826667-166.293333-165.738667-124.970666 45.76-59.669333 6.442667-189.781333-84.949333-192.768 58.24 32.682667 28.949333 124.928 36.117333 185.152C773.12 130.986667 652.117333 34.56 528.64 57.002667c50.645333 88.746667 180.736 97.28 253.973333 171.392-126.976-86.037333-298.069333-76.48-372.842666 2.453333 108.522667-45.482667 149.269333 65.92 359.573333 25.216-123.306667 27.456-265.514667 68.096-292.053333 245.077333 33.408-66.026667 253.098667-136.32 307.690666-209.301333-96.256 186.112 35.733333 303.936-83.413333 422.186667h0.021333zM330.24 307.157333c48.32-57.344 38.826667-115.306667 98.773333-133.248-75.178667-19.178667-179.413333 61.866667-151.125333 141.973334-87.829333-75.946667-177.194667-14.186667-198.549333 64.64 34.005333-46.378667 112.725333-34.410667 168.746666-36.48-113.045333 14.464-216.256 83.584-214.784 208.298666 48.64-60.373333 138.666667-61.44 238.805334-185.962666-57.962667 92.053333-81.109333 276.906667-26.496 396.352-23.808-109.44 87.978667-277.632 65.237333-382.421334 35.968 42.389333 83.904 59.264 131.285333 73.856a301.141333 301.141333 0 0 1 32.448-77.994666c-47.232-25.173333-96.298667-37.269333-122.666666-43.669334 69.098667 6.976 127.168-9.344 173.141333-18.026666 10.069333-9.173333 20.693333-17.493333 31.616-24.96-11.178667-3.541333-21.717333-6.698667-31.338667-10.538667-47.232-18.730667-83.349333-20.970667-107.434666-18.026667a262.528 262.528 0 0 0-87.68 46.208z" fill="#4CBFAA" p-id="4569"></path></svg><style>@media (prefers-color-scheme: light) { :root { filter: none; } }
@media (prefers-color-scheme: dark) { :root { filter: none; } }
</style></svg>